<svg xmlns="http://www.w3.org/2000/svg" xmlns:xlink="http://www.w3.org/1999/xlink" width="6912" zoomAndPan="magnify" viewBox="0 0 5184 2592.000001" height="3456" preserveAspectRatio="xMidYMid meet" version="1.0"><defs><g/><clipPath id="60c876e45b"><path d="M 1754.035156 458.585938 L 3429.640625 458.585938 L 3429.640625 2132.6875 L 1754.035156 2132.6875 Z M 1754.035156 458.585938 " clip-rule="nonzero"/></clipPath></defs><path fill="#a82424" d="M 2888.109375 730.800781 C 2875.296875 749.847656 2858.671875 754.351562 2838.238281 746.730469 C 2835.8125 746.039062 2832.351562 745.691406 2830.273438 747.078125 C 2812.261719 760.585938 2796.679688 749.847656 2781.09375 742.230469 C 2766.203125 734.957031 2764.46875 723.183594 2773.820312 708.980469 C 2776.9375 704.132812 2780.054688 698.59375 2781.09375 693.050781 C 2783.863281 678.503906 2792.175781 671.230469 2806.722656 671.230469 C 2814.6875 671.230469 2822.308594 671.230469 2830.273438 670.539062 C 2863.175781 667.074219 2886.726562 682.316406 2900.230469 709.675781 C 2920.320312 750.542969 2950.796875 781.710938 2983.699219 811.496094 C 3015.214844 839.894531 3035.648438 874.183594 3043.960938 916.089844 C 3047.769531 934.445312 3055.734375 951.761719 3062.316406 969.425781 C 3067.511719 983.625 3065.085938 995.398438 3053.65625 1005.441406 C 3045.34375 1012.714844 3036.6875 1019.296875 3028.722656 1027.261719 C 3019.714844 1036.265625 3009.328125 1044.925781 3003.09375 1055.660156 C 2976.078125 1101.722656 2935.902344 1122.847656 2883.609375 1120.078125 C 2868.367188 1119.386719 2861.441406 1122.15625 2857.632812 1138.433594 C 2850.707031 1168.566406 2838.929688 1199.042969 2810.878906 1213.933594 C 2776.9375 1231.597656 2759.273438 1263.460938 2734.339844 1288.742188 C 2713.210938 1310.214844 2706.285156 1335.496094 2710.09375 1365.972656 C 2714.25 1396.453125 2701.4375 1421.386719 2676.5 1440.433594 C 2671.652344 1443.898438 2667.496094 1448.746094 2664.03125 1454.289062 C 2674.421875 1449.09375 2684.8125 1444.246094 2697.972656 1438.011719 C 2705.246094 1481.300781 2713.558594 1521.824219 2718.753906 1562.691406 C 2727.410156 1629.878906 2713.90625 1693.949219 2684.8125 1754.558594 C 2682.734375 1759.0625 2679.964844 1762.871094 2676.5 1767.027344 C 2703.515625 1696.027344 2713.558594 1623.300781 2706.632812 1545.027344 C 2670.613281 1606.675781 2635.980469 1665.203125 2604.808594 1718.195312 C 2602.039062 1694.296875 2598.921875 1663.820312 2595.113281 1633.6875 C 2595.113281 1632.304688 2593.035156 1630.917969 2588.878906 1630.226562 C 2588.878906 1661.050781 2588.878906 1691.871094 2588.878906 1722.695312 C 2587.492188 1723.390625 2586.109375 1724.082031 2584.375 1724.773438 C 2549.050781 1667.628906 2513.726562 1610.136719 2478.398438 1553.339844 C 2477.359375 1634.035156 2499.523438 1710.921875 2528.617188 1786.421875 C 2468.007812 1712.652344 2452.769531 1571.347656 2491.558594 1444.246094 C 2512.339844 1443.207031 2526.191406 1458.097656 2541.777344 1468.140625 C 2542.46875 1467.101562 2543.507812 1466.0625 2544.203125 1465.023438 C 2535.890625 1457.753906 2528.617188 1449.09375 2519.265625 1443.207031 C 2486.710938 1422.078125 2472.859375 1393.679688 2479.089844 1355.238281 C 2482.554688 1333.417969 2473.898438 1314.71875 2460.390625 1297.746094 C 2444.804688 1278.351562 2430.257812 1258.265625 2415.019531 1238.871094 C 2411.902344 1234.714844 2406.707031 1231.597656 2401.859375 1229.519531 C 2361.683594 1211.855469 2336.402344 1182.070312 2328.785156 1138.78125 C 2326.359375 1124.582031 2320.816406 1120.425781 2306.273438 1120.425781 C 2265.75 1121.117188 2232.15625 1104.839844 2209.300781 1071.246094 C 2192.328125 1046.308594 2170.855469 1027.261719 2148 1008.214844 C 2124.101562 988.472656 2123.410156 979.121094 2135.183594 950.375 C 2142.804688 931.328125 2149.039062 911.585938 2153.539062 891.5 C 2158.734375 867.257812 2167.738281 845.785156 2184.710938 827.773438 C 2193.019531 818.769531 2201.332031 808.726562 2210.339844 800.761719 C 2240.121094 774.785156 2265.75 746.734375 2285.144531 711.40625 C 2306.273438 673.308594 2342.984375 661.1875 2385.234375 672.617188 C 2391.125 674.347656 2397.703125 679.199219 2400.820312 684.394531 C 2407.054688 695.476562 2412.25 707.597656 2415.714844 720.066406 C 2417.097656 725.261719 2414.328125 734.957031 2410.519531 737.035156 C 2392.855469 746.386719 2375.539062 761.972656 2353.375 747.425781 C 2351.640625 746.386719 2348.871094 745.347656 2347.140625 746.039062 C 2329.824219 752.273438 2315.621094 749.15625 2304.539062 729.761719 C 2300.382812 749.847656 2318.046875 750.195312 2324.28125 760.238281 C 2318.046875 771.320312 2311.46875 782.75 2304.886719 794.179688 C 2292.417969 816.691406 2285.144531 840.589844 2288.261719 866.910156 C 2292.074219 897.039062 2283.414062 922.667969 2254.320312 939.984375 C 2263.671875 948.992188 2272.332031 956.957031 2280.644531 964.921875 C 2281.683594 964.230469 2283.066406 963.535156 2284.105469 962.84375 C 2279.949219 956.261719 2276.140625 949.335938 2271.984375 942.410156 C 2275.449219 937.90625 2279.949219 933.75 2282.722656 928.558594 C 2289.996094 916.433594 2301.421875 914.355469 2313.890625 915.742188 C 2347.484375 919.550781 2385.234375 951.761719 2392.507812 985.007812 C 2395.625 999.554688 2394.242188 1015.140625 2396.316406 1030.03125 C 2398.742188 1045.269531 2402.898438 1060.164062 2407.054688 1078.863281 C 2375.191406 1060.164062 2346.445312 1061.546875 2317.355469 1069.515625 C 2317.355469 1070.898438 2317.007812 1072.285156 2317.007812 1073.671875 C 2324.628906 1074.710938 2332.246094 1075.054688 2339.867188 1076.785156 C 2350.949219 1079.558594 2362.378906 1081.636719 2372.769531 1086.136719 C 2387.3125 1092.371094 2392.507812 1105.53125 2388.351562 1121.464844 C 2380.039062 1153.328125 2388.699219 1180.339844 2415.019531 1199.386719 C 2427.488281 1208.394531 2441.339844 1216.011719 2455.886719 1222.246094 C 2441.6875 1210.472656 2425.757812 1199.734375 2412.941406 1186.226562 C 2396.664062 1168.910156 2395.972656 1147.4375 2409.132812 1133.238281 C 2411.902344 1136.355469 2415.019531 1139.820312 2417.789062 1142.9375 C 2433.03125 1159.558594 2448.613281 1175.839844 2463.160156 1192.460938 C 2473.203125 1203.890625 2484.285156 1215.667969 2490.867188 1229.171875 C 2499.871094 1247.527344 2508.183594 1265.882812 2526.886719 1276.96875 C 2509.222656 1299.132812 2498.140625 1274.542969 2480.824219 1271.773438 C 2509.570312 1305.710938 2511.648438 1346.578125 2524.460938 1385.367188 C 2527.230469 1376.363281 2527.230469 1365.628906 2540.390625 1366.667969 C 2558.402344 1368.398438 2580.914062 1363.550781 2587.492188 1386.0625 C 2593.382812 1406.496094 2594.074219 1428.3125 2596.5 1449.785156 C 2597.191406 1456.019531 2596.5 1462.601562 2598.230469 1469.179688 C 2599.269531 1461.910156 2600.65625 1454.636719 2601 1447.363281 C 2603.078125 1429.007812 2603.425781 1410.652344 2606.886719 1392.296875 C 2610.699219 1371.167969 2629.398438 1360.085938 2650.871094 1364.589844 C 2666.457031 1367.707031 2667.496094 1379.480469 2665.417969 1392.640625 C 2666.804688 1391.949219 2667.496094 1391.949219 2667.496094 1391.601562 C 2667.496094 1360.78125 2691.046875 1335.152344 2687.582031 1303.289062 C 2686.890625 1297.402344 2692.433594 1290.128906 2695.894531 1284.238281 C 2699.011719 1278.699219 2703.515625 1273.851562 2707.324219 1268.65625 C 2706.285156 1267.617188 2704.898438 1266.578125 2703.863281 1265.539062 C 2696.933594 1271.773438 2689.660156 1278.351562 2683.082031 1284.585938 C 2677.539062 1279.390625 2672.691406 1275.582031 2667.148438 1270.386719 C 2694.164062 1255.839844 2700.050781 1227.441406 2710.441406 1201.8125 C 2711.480469 1199.390625 2711.480469 1196.273438 2713.210938 1194.539062 C 2733.300781 1175.144531 2753.734375 1156.097656 2776.9375 1134.277344 C 2778.324219 1143.28125 2781.09375 1150.554688 2780.054688 1157.484375 C 2777.628906 1176.183594 2768.277344 1191.078125 2751.65625 1201.121094 C 2743.34375 1205.96875 2735.378906 1211.511719 2728.105469 1217.746094 C 2771.742188 1211.855469 2805.335938 1166.140625 2796.679688 1126.660156 C 2790.789062 1098.953125 2808.800781 1076.789062 2837.546875 1077.132812 C 2846.550781 1077.132812 2855.902344 1078.171875 2865.25 1078.519531 C 2867.675781 1078.519531 2870.101562 1076.789062 2873.21875 1075.75 C 2860.058594 1063.972656 2827.15625 1061.203125 2793.5625 1068.820312 C 2793.214844 1068.128906 2792.175781 1067.089844 2792.175781 1066.398438 C 2792.867188 1044.925781 2802.21875 1025.183594 2803.257812 1003.019531 C 2804.644531 974.621094 2824.730469 952.109375 2844.820312 933.40625 C 2854.515625 924.402344 2869.753906 919.550781 2883.261719 917.128906 C 2906.121094 913.320312 2922.398438 936.867188 2915.125 960.074219 C 2921.011719 954.53125 2927.246094 949.335938 2935.210938 942.757812 C 2903.347656 921.628906 2900.578125 890.460938 2901.617188 857.210938 C 2901.964844 844.050781 2897.808594 829.851562 2892.957031 817.382812 C 2886.378906 800.414062 2877.027344 784.136719 2869.0625 767.859375 C 2865.597656 760.933594 2866.984375 756.777344 2874.257812 752.273438 C 2880.835938 748.117188 2884.992188 740.5 2890.1875 734.609375 C 2890.878906 733.570312 2889.496094 732.1875 2888.109375 730.800781 Z M 2197.871094 979.8125 C 2223.152344 990.550781 2245.316406 999.554688 2269.90625 1009.945312 C 2262.632812 987.085938 2224.539062 971.15625 2197.871094 979.8125 Z M 2933.824219 1013.0625 C 2955.992188 1002.671875 2977.808594 992.628906 3002.746094 981.199219 C 2980.234375 974.273438 2946.292969 989.859375 2933.824219 1013.0625 Z M 2933.824219 1013.0625 " fill-opacity="1" fill-rule="nonzero"/><path fill="#a82424" d="M 2828.539062 1678.367188 C 2816.074219 1672.132812 2798.757812 1684.945312 2798.757812 1662.78125 C 2798.757812 1647.195312 2798.410156 1647.195312 2826.808594 1643.734375 C 2827.15625 1634.035156 2826.808594 1623.992188 2828.539062 1613.949219 C 2828.886719 1610.484375 2834.082031 1608.058594 2837.199219 1605.289062 C 2837.546875 1605.289062 2837.890625 1605.289062 2838.585938 1605.289062 C 2869.40625 1603.90625 2869.0625 1603.90625 2871.484375 1634.382812 C 2871.484375 1637.5 2872.523438 1640.617188 2873.21875 1644.078125 C 2877.375 1644.425781 2881.183594 1644.425781 2884.648438 1644.769531 C 2895.035156 1646.503906 2898.5 1642 2898.5 1631.609375 C 2898.847656 1592.476562 2900.230469 1553.339844 2900.230469 1514.203125 C 2900.230469 1501.390625 2905.082031 1497.234375 2917.203125 1497.925781 C 2929.667969 1498.621094 2942.136719 1498.273438 2954.605469 1497.925781 C 2962.917969 1497.582031 2965.6875 1500.699219 2966.726562 1509.007812 C 2980.582031 1604.597656 2980.925781 1699.839844 2965.6875 1795.425781 C 2963.265625 1809.625 2958.070312 1815.859375 2942.832031 1815.511719 C 2892.265625 1814.472656 2900.230469 1821.402344 2899.191406 1772.222656 C 2898.5 1741.746094 2898.847656 1711.613281 2898.847656 1681.136719 C 2898.847656 1679.75 2898.5 1678.367188 2897.808594 1675.941406 C 2889.839844 1675.941406 2881.875 1675.941406 2872.523438 1675.941406 C 2872.179688 1680.789062 2871.832031 1685.640625 2871.484375 1690.488281 C 2871.140625 1718.195312 2870.792969 1745.902344 2871.140625 1773.261719 C 2871.140625 1781.574219 2868.367188 1786.421875 2860.402344 1789.882812 C 2806.027344 1813.78125 2751.65625 1837.679688 2697.28125 1861.921875 C 2662.648438 1877.160156 2628.359375 1893.089844 2593.726562 1907.984375 C 2589.570312 1909.714844 2582.992188 1910.0625 2578.835938 1907.984375 C 2494.332031 1870.234375 2409.824219 1831.789062 2325.320312 1794.039062 C 2302.808594 1783.996094 2302.808594 1784.34375 2302.808594 1759.753906 C 2302.808594 1736.894531 2302.808594 1713.691406 2302.808594 1690.832031 C 2302.808594 1685.984375 2302.460938 1680.789062 2302.117188 1675.25 C 2293.457031 1675.25 2285.492188 1675.25 2275.449219 1675.25 C 2275.449219 1680.789062 2275.449219 1685.984375 2275.449219 1691.179688 C 2275.449219 1726.851562 2275.449219 1762.179688 2275.449219 1797.851562 C 2275.449219 1810.316406 2272.332031 1816.898438 2258.132812 1815.511719 C 2245.664062 1814.128906 2233.195312 1814.820312 2220.726562 1815.167969 C 2212.417969 1815.167969 2208.605469 1812.394531 2206.875 1803.738281 C 2187.480469 1706.074219 2188.867188 1608.40625 2205.144531 1510.742188 C 2206.527344 1501.738281 2209.992188 1496.886719 2220.382812 1497.582031 C 2233.195312 1498.273438 2246.355469 1498.273438 2258.824219 1497.234375 C 2271.984375 1496.195312 2275.792969 1501.738281 2275.792969 1513.859375 C 2275.449219 1550.222656 2275.792969 1586.585938 2275.792969 1623.300781 C 2275.792969 1629.53125 2275.792969 1636.113281 2275.792969 1643.386719 C 2285.144531 1643.386719 2292.765625 1643.386719 2302.460938 1643.386719 C 2302.460938 1633.34375 2302.460938 1623.644531 2302.460938 1613.601562 C 2302.460938 1605.636719 2305.925781 1602.519531 2313.890625 1602.171875 C 2343.675781 1599.75 2343.675781 1599.75 2343.328125 1629.878906 C 2343.328125 1634.382812 2343.328125 1638.882812 2343.328125 1644.769531 C 2356.835938 1646.847656 2374.847656 1640.269531 2372.421875 1664.511719 C 2369.996094 1685.984375 2352.679688 1670.398438 2342.289062 1679.75 C 2342.289062 1699.839844 2341.945312 1722.695312 2342.636719 1745.554688 C 2342.636719 1748.324219 2347.484375 1752.132812 2350.949219 1753.519531 C 2427.140625 1787.804688 2502.988281 1822.09375 2579.527344 1855.339844 C 2585.414062 1858.113281 2595.113281 1856.726562 2601.347656 1853.957031 C 2674.078125 1821.402344 2746.804688 1788.152344 2818.84375 1754.90625 C 2822.652344 1753.171875 2827.5 1748.324219 2827.5 1744.515625 C 2829.234375 1722.351562 2828.539062 1699.839844 2828.539062 1678.367188 Z M 2828.539062 1678.367188 " fill-opacity="1" fill-rule="nonzero"/><path fill="#a82424" d="M 2602.386719 1119.730469 C 2602.386719 1083.714844 2616.238281 1055.660156 2649.832031 1039.382812 C 2669.226562 1030.03125 2687.929688 1019.296875 2707.671875 1009.945312 C 2731.566406 998.863281 2756.503906 996.089844 2781.441406 1006.136719 C 2797.71875 1012.714844 2798.757812 1018.257812 2792.523438 1034.1875 C 2781.441406 1061.546875 2771.742188 1089.253906 2761.007812 1116.960938 C 2750.617188 1141.898438 2733.644531 1161.984375 2710.789062 1176.183594 C 2685.507812 1191.769531 2657.800781 1195.925781 2630.4375 1182.070312 C 2604.808594 1169.257812 2603.769531 1144.320312 2602.386719 1119.730469 Z M 2602.386719 1119.730469 " fill-opacity="1" fill-rule="nonzero"/><path fill="#a82424" d="M 2591.996094 1119.386719 C 2595.804688 1178.953125 2538.660156 1208.738281 2485.671875 1178.953125 C 2448.613281 1158.519531 2425.410156 1125.273438 2421.253906 1081.636719 C 2419.175781 1061.546875 2418.484375 1041.113281 2407.402344 1023.105469 C 2406.015625 1020.679688 2410.171875 1012.023438 2413.636719 1009.945312 C 2437.1875 996.785156 2462.8125 995.050781 2486.710938 1007.175781 C 2513.03125 1020.335938 2539.007812 1034.878906 2561.867188 1052.890625 C 2582.992188 1069.515625 2594.421875 1093.757812 2591.996094 1119.386719 Z M 2591.996094 1119.386719 " fill-opacity="1" fill-rule="nonzero"/><path fill="#a82424" d="M 2579.875 807.6875 C 2566.714844 795.566406 2554.9375 803.183594 2543.507812 804.917969 C 2554.246094 783.097656 2586.453125 774.785156 2621.433594 786.558594 C 2617.277344 778.59375 2614.160156 772.707031 2610.003906 764.742188 C 2629.746094 776.515625 2640.484375 792.101562 2646.371094 811.496094 C 2649.140625 820.15625 2653.296875 828.121094 2655.375 836.777344 C 2657.800781 846.128906 2658.839844 855.828125 2659.878906 865.179688 C 2660.917969 873.835938 2659.53125 881.800781 2665.765625 890.460938 C 2670.265625 896.347656 2666.804688 910.199219 2663.339844 918.859375 C 2659.183594 929.59375 2649.832031 938.253906 2644.984375 948.644531 C 2626.28125 988.125 2588.53125 995.050781 2559.789062 962.496094 C 2546.972656 947.953125 2536.582031 930.980469 2527.578125 913.316406 C 2523.074219 904.3125 2518.226562 891.152344 2532.773438 883.1875 C 2534.503906 882.496094 2535.199219 879.378906 2535.542969 877.300781 C 2535.890625 874.875 2535.890625 872.796875 2535.542969 870.371094 C 2533.8125 838.855469 2541.777344 813.921875 2579.875 807.6875 Z M 2579.875 807.6875 " fill-opacity="1" fill-rule="nonzero"/><path fill="#a82424" d="M 2372.421875 1844.257812 C 2399.089844 1855.339844 2425.757812 1866.078125 2452.078125 1877.851562 C 2493.984375 1896.902344 2535.542969 1916.640625 2577.449219 1935.691406 C 2582.644531 1938.113281 2590.957031 1937.421875 2596.5 1935.34375 C 2661.957031 1906.597656 2727.066406 1877.507812 2792.175781 1848.414062 C 2797.71875 1845.644531 2803.953125 1843.566406 2809.839844 1841.488281 C 2810.53125 1842.527344 2811.222656 1843.566406 2812.261719 1844.605469 C 2806.03125 1850.492188 2799.796875 1856.726562 2792.867188 1862.269531 C 2733.300781 1910.0625 2673.730469 1957.855469 2613.816406 2005.996094 C 2589.226562 2025.738281 2589.226562 2026.082031 2564.636719 2006.34375 C 2504.027344 1956.816406 2443.417969 1907.292969 2382.8125 1857.765625 C 2378.65625 1854.300781 2374.847656 1850.492188 2371.035156 1847.03125 C 2371.382812 1845.992188 2371.730469 1844.953125 2372.421875 1844.257812 Z M 2372.421875 1844.257812 " fill-opacity="1" fill-rule="nonzero"/><path fill="#a82424" d="M 2971.921875 1814.820312 C 2973.652344 1802.699219 2974.691406 1793 2976.078125 1782.957031 C 2988.199219 1695.683594 2986.121094 1608.40625 2977.117188 1521.476562 C 2977.117188 1519.746094 2976.769531 1518.015625 2976.769531 1515.9375 C 2975.039062 1496.542969 2975.386719 1496.542969 2994.085938 1497.234375 C 3005.171875 1497.582031 3016.253906 1497.925781 3026.988281 1497.582031 C 3034.953125 1497.582031 3039.109375 1500.699219 3039.804688 1508.664062 C 3040.148438 1513.859375 3041.535156 1518.707031 3041.535156 1523.902344 C 3041.1875 1610.832031 3041.535156 1697.761719 3039.457031 1784.691406 C 3038.765625 1815.167969 3036.6875 1814.820312 3006.210938 1814.820312 C 2995.472656 1814.820312 2984.738281 1814.820312 2971.921875 1814.820312 Z M 2971.921875 1814.820312 " fill-opacity="1" fill-rule="nonzero"/><path fill="#a82424" d="M 2198.214844 1497.582031 C 2183.671875 1603.90625 2178.128906 1708.496094 2202.027344 1815.511719 C 2182.285156 1815.511719 2164.621094 1816.207031 2146.960938 1815.167969 C 2143.496094 1815.167969 2138.300781 1808.585938 2137.261719 1804.085938 C 2134.492188 1791.617188 2131.722656 1778.800781 2131.722656 1765.988281 C 2131.722656 1686.332031 2132.066406 1606.675781 2133.453125 1527.019531 C 2133.796875 1497.925781 2135.183594 1497.925781 2163.582031 1497.582031 C 2173.972656 1497.582031 2184.363281 1497.582031 2198.214844 1497.582031 Z M 2198.214844 1497.582031 " fill-opacity="1" fill-rule="nonzero"/><path fill="#a82424" d="M 2497.449219 1211.511719 C 2507.835938 1211.511719 2517.1875 1211.511719 2526.191406 1211.511719 C 2547.664062 1210.816406 2567.40625 1205.621094 2582.644531 1189.691406 C 2591.304688 1180.6875 2598.578125 1179.992188 2609.3125 1188.652344 C 2634.25 1209.085938 2663.339844 1217.742188 2695.894531 1209.433594 C 2698.320312 1248.566406 2659.878906 1282.507812 2614.507812 1269.695312 C 2610.003906 1268.308594 2606.195312 1261.726562 2604.117188 1256.878906 C 2601.695312 1252.03125 2601.695312 1246.488281 2600.308594 1238.871094 C 2597.882812 1241.988281 2596.84375 1243.027344 2596.152344 1244.410156 C 2590.957031 1253.070312 2588.1875 1266.921875 2580.914062 1270.039062 C 2564.980469 1276.621094 2546.625 1276.96875 2530.003906 1268.308594 C 2513.03125 1258.957031 2502.988281 1241.292969 2497.449219 1211.511719 Z M 2497.449219 1211.511719 " fill-opacity="1" fill-rule="nonzero"/><path fill="#a82424" d="M 3089.675781 1654.816406 C 3089.675781 1689.792969 3089.675781 1724.773438 3089.675781 1759.753906 C 3089.675781 1770.144531 3089.328125 1777.761719 3075.476562 1777.070312 C 3055.386719 1776.378906 3052.617188 1775.339844 3052.617188 1760.445312 C 3052.617188 1688.753906 3053.308594 1616.71875 3053.308594 1544.679688 C 3053.308594 1537.410156 3055.042969 1533.253906 3063.007812 1533.253906 C 3066.472656 1533.253906 3070.28125 1532.90625 3074.089844 1532.214844 C 3085.171875 1530.828125 3090.023438 1534.636719 3089.675781 1546.757812 C 3088.984375 1582.777344 3089.675781 1618.796875 3089.675781 1654.816406 Z M 3089.675781 1654.816406 " fill-opacity="1" fill-rule="nonzero"/><path fill="#a82424" d="M 2121.675781 1533.253906 C 2121.675781 1598.363281 2121.675781 1661.050781 2121.675781 1723.390625 C 2121.675781 1737.242188 2121.675781 1751.09375 2121.675781 1764.601562 C 2122.023438 1779.496094 2110.941406 1775.683594 2102.976562 1775.683594 C 2095.355469 1776.03125 2087.390625 1777.070312 2087.390625 1764.257812 C 2087.738281 1691.527344 2087.738281 1618.796875 2087.390625 1546.066406 C 2087.390625 1535.675781 2091.199219 1531.867188 2101.242188 1532.558594 C 2108.171875 1533.597656 2114.058594 1533.253906 2121.675781 1533.253906 Z M 2121.675781 1533.253906 " fill-opacity="1" fill-rule="nonzero"/><path fill="#a82424" d="M 2559.09375 1001.285156 C 2559.441406 994.707031 2559.789062 987.78125 2560.480469 978.429688 C 2587.148438 1001.980469 2612.082031 996.785156 2638.75 976.351562 C 2637.367188 993.667969 2636.328125 1007.867188 2634.59375 1021.71875 C 2634.25 1025.875 2631.132812 1030.378906 2628.015625 1032.800781 C 2616.933594 1041.808594 2605.503906 1050.464844 2591.996094 1060.507812 C 2594.765625 1060.855469 2593.382812 1060.855469 2593.035156 1060.507812 C 2577.796875 1035.917969 2551.476562 1028.648438 2527.925781 1016.523438 C 2513.03125 1008.90625 2513.726562 1006.828125 2525.152344 995.050781 C 2533.8125 986.394531 2540.394531 975.3125 2548.703125 964.230469 C 2551.476562 975.3125 2554.59375 988.125 2558.054688 1001.285156 C 2557.363281 1001.285156 2558.054688 1001.285156 2559.09375 1001.285156 Z M 2559.09375 1001.285156 " fill-opacity="1" fill-rule="nonzero"/><path fill="#a82424" d="M 2682.734375 1316.449219 C 2682.734375 1341.382812 2672.34375 1353.507812 2647.753906 1357.664062 C 2643.597656 1358.355469 2639.445312 1359.046875 2635.632812 1359.738281 C 2610.003906 1364.242188 2606.195312 1362.164062 2604.808594 1336.191406 C 2604.117188 1324.761719 2605.847656 1311.945312 2609.660156 1301.210938 C 2616.585938 1282.507812 2636.671875 1273.851562 2657.800781 1277.660156 C 2671.304688 1280.082031 2682.734375 1297.746094 2682.734375 1316.449219 Z M 2682.734375 1316.449219 " fill-opacity="1" fill-rule="nonzero"/><path fill="#a82424" d="M 2566.714844 1361.125 C 2528.964844 1361.125 2517.535156 1346.578125 2517.535156 1316.449219 C 2517.535156 1297.746094 2536.582031 1279.390625 2553.554688 1279.390625 C 2578.835938 1279.390625 2595.804688 1293.589844 2597.191406 1316.101562 C 2597.539062 1322.335938 2597.191406 1328.917969 2596.5 1335.496094 C 2593.382812 1358.007812 2589.226562 1361.472656 2566.714844 1361.125 Z M 2566.714844 1361.125 " fill-opacity="1" fill-rule="nonzero"/><path fill="#a82424" d="M 3124.65625 1675.941406 C 3124.308594 1680.789062 3123.269531 1684.253906 3123.617188 1687.714844 C 3125 1700.53125 3118.765625 1703.300781 3107.339844 1702.957031 C 3099.027344 1702.609375 3095.910156 1699.839844 3095.910156 1691.871094 C 3096.253906 1669.359375 3096.601562 1646.847656 3096.601562 1624.335938 C 3096.601562 1611.175781 3105.605469 1612.910156 3113.917969 1612.5625 C 3123.269531 1612.214844 3124.308594 1618.105469 3123.960938 1625.375 C 3123.960938 1631.609375 3123.960938 1637.84375 3123.960938 1645.808594 C 3136.082031 1645.808594 3147.167969 1645.808594 3157.902344 1645.808594 C 3167.601562 1645.808594 3172.449219 1650.3125 3172.101562 1660.011719 C 3171.757812 1669.015625 3168.640625 1676.289062 3157.554688 1676.289062 C 3147.511719 1675.941406 3136.777344 1675.941406 3124.65625 1675.941406 Z M 3124.65625 1675.941406 " fill-opacity="1" fill-rule="nonzero"/><path fill="#a82424" d="M 2051.371094 1645.808594 C 2053.449219 1634.035156 2053.101562 1623.644531 2057.605469 1615.332031 C 2059.335938 1611.871094 2071.113281 1613.949219 2080.117188 1613.253906 C 2080.117188 1641.65625 2080.464844 1668.667969 2079.425781 1695.683594 C 2079.425781 1698.453125 2070.074219 1701.917969 2064.878906 1702.261719 C 2061.070312 1702.261719 2055.179688 1698.105469 2053.796875 1694.296875 C 2051.71875 1689.101562 2053.449219 1682.867188 2053.449219 1674.902344 C 2040.289062 1674.902344 2028.859375 1674.554688 2017.777344 1674.902344 C 2006.003906 1675.25 2004.617188 1667.628906 2003.925781 1658.625 C 2003.578125 1649.273438 2008.425781 1645.117188 2017.429688 1645.464844 C 2028.859375 1645.808594 2040.289062 1645.808594 2051.371094 1645.808594 Z M 2051.371094 1645.808594 " fill-opacity="1" fill-rule="nonzero"/><path fill="#a82424" d="M 2816.765625 956.609375 C 2810.53125 971.847656 2804.296875 986.046875 2797.71875 1001.632812 C 2768.972656 986.742188 2739.1875 982.238281 2708.710938 999.207031 C 2717.714844 960.074219 2777.285156 937.214844 2816.765625 956.609375 Z M 2816.765625 956.609375 " fill-opacity="1" fill-rule="nonzero"/><path fill="#a82424" d="M 2390.085938 955.222656 C 2430.953125 938.253906 2477.015625 960.417969 2494.675781 998.863281 C 2463.851562 984.316406 2434.070312 984.316406 2405.324219 1000.941406 C 2400.128906 985.355469 2395.28125 970.808594 2390.085938 955.222656 Z M 2390.085938 955.222656 " fill-opacity="1" fill-rule="nonzero"/><path fill="#a82424" d="M 2647.0625 971.5 C 2663.339844 984.316406 2677.195312 995.050781 2690.699219 1005.441406 C 2690.699219 1007.175781 2690.699219 1008.558594 2691.046875 1010.292969 C 2674.769531 1015.484375 2658.492188 1021.027344 2639.097656 1026.914062 C 2641.867188 1006.828125 2644.292969 990.203125 2647.0625 971.5 Z M 2647.0625 971.5 " fill-opacity="1" fill-rule="nonzero"/><g clip-path="url(#60c876e45b)"><path fill="#a82424" d="M 2591.648438 2132.40625 C 2478.746094 2132.40625 2368.957031 2110.242188 2265.75 2066.605469 C 2166.007812 2024.351562 2076.652344 1964.089844 1999.769531 1887.203125 C 1922.882812 1810.316406 1862.621094 1720.964844 1820.714844 1621.222656 C 1777.078125 1518.015625 1754.910156 1408.574219 1754.910156 1295.324219 C 1754.910156 1182.417969 1777.078125 1072.632812 1820.714844 969.425781 C 1862.96875 869.679688 1923.230469 780.328125 2000.113281 703.441406 C 2077 626.554688 2166.355469 566.292969 2266.097656 524.386719 C 2369.304688 480.75 2478.746094 458.585938 2591.996094 458.585938 C 2705.246094 458.585938 2814.339844 480.75 2917.894531 524.386719 C 3017.636719 566.640625 3106.992188 626.902344 3183.878906 703.789062 C 3260.761719 780.671875 3321.023438 870.027344 3363.277344 969.769531 C 3406.914062 1072.976562 3429.082031 1182.417969 3429.082031 1295.667969 C 3429.082031 1408.574219 3406.914062 1518.359375 3363.277344 1621.566406 C 3321.023438 1721.3125 3260.761719 1810.664062 3183.878906 1887.550781 C 3106.992188 1964.4375 3017.292969 2024.351562 2917.894531 2066.605469 C 2813.996094 2110.242188 2704.207031 2132.40625 2591.648438 2132.40625 Z M 2591.648438 505.683594 C 2484.980469 505.683594 2381.773438 526.464844 2284.105469 567.679688 C 2190.25 607.507812 2105.746094 664.304688 2033.015625 737.035156 C 1960.285156 809.765625 1903.488281 893.921875 1863.660156 988.125 C 1822.792969 1085.445312 1802.011719 1188.652344 1802.011719 1295.324219 C 1802.011719 1401.992188 1822.792969 1505.199219 1864.007812 1602.867188 C 1903.835938 1696.722656 1960.632812 1781.226562 2033.363281 1853.957031 C 2105.746094 1926.6875 2190.25 1983.484375 2284.453125 2023.3125 C 2381.773438 2064.527344 2485.324219 2085.304688 2591.996094 2085.304688 C 2698.667969 2085.304688 2801.875 2064.527344 2899.539062 2023.3125 C 2993.394531 1983.484375 3077.898438 1926.6875 3150.628906 1853.957031 C 3223.359375 1781.574219 3280.15625 1697.066406 3319.984375 1602.867188 C 3361.199219 1505.546875 3381.980469 1401.992188 3381.980469 1295.324219 C 3381.980469 1188.652344 3361.199219 1085.445312 3319.984375 987.78125 C 3280.15625 893.921875 3223.359375 809.417969 3150.628906 736.6875 C 3078.246094 663.957031 2993.742188 607.160156 2899.539062 567.332031 C 2801.527344 526.464844 2697.972656 505.683594 2591.648438 505.683594 Z M 2591.648438 505.683594 " fill-opacity="1" fill-rule="nonzero"/></g><g fill="#a82424" fill-opacity="1"><g transform="translate(2029.358383, 605.12751)"><g><path d="M 98.578125 -52 C 71.546875 -36.195312 47.257812 -31.613281 25.71875 -38.25 C 4.175781 -44.882812 -16.191406 -63.539062 -35.390625 -94.21875 L 13.390625 -133.53125 C 24.128906 -115.71875 33.816406 -104.097656 42.453125 -98.671875 C 51.097656 -93.253906 59.5 -92.925781 67.65625 -97.6875 C 78.144531 -103.820312 79.367188 -113.765625 71.328125 -127.515625 C 64.921875 -138.460938 56.894531 -146.4375 47.25 -151.4375 C 37.613281 -156.4375 24.78125 -160.34375 8.75 -163.15625 L -28.171875 -170.171875 C -46.296875 -173.347656 -62.046875 -178.757812 -75.421875 -186.40625 C -88.804688 -194.0625 -100.128906 -205.8125 -109.390625 -221.65625 C -123.285156 -245.425781 -126.929688 -267.84375 -120.328125 -288.90625 C -113.722656 -309.96875 -98.066406 -327.71875 -73.359375 -342.15625 C -46.566406 -357.820312 -23.769531 -360.671875 -4.96875 -350.703125 C 13.832031 -340.742188 30.117188 -324.785156 43.890625 -302.828125 L -6.078125 -264.703125 C -15.117188 -279.117188 -22.617188 -288.878906 -28.578125 -293.984375 C -34.535156 -299.097656 -41.242188 -299.476562 -48.703125 -295.125 C -54.066406 -291.988281 -56.875 -287.296875 -57.125 -281.046875 C -57.375 -274.796875 -55.867188 -268.875 -52.609375 -263.28125 C -47.023438 -253.738281 -40.164062 -246.960938 -32.03125 -242.953125 C -23.90625 -238.953125 -12.617188 -235.546875 1.828125 -232.734375 L 37.3125 -225.8125 C 58.226562 -222.101562 76.414062 -215.851562 91.875 -207.0625 C 107.332031 -198.28125 120.375 -184.796875 131 -166.609375 C 138.769531 -153.328125 142.734375 -139.460938 142.890625 -125.015625 C 143.046875 -110.566406 139.367188 -96.929688 131.859375 -84.109375 C 124.359375 -71.285156 113.265625 -60.582031 98.578125 -52 Z M 98.578125 -52 "/></g></g></g><g fill="#a82424" fill-opacity="1"><g transform="translate(2181.458794, 514.501969)"><g><path d="M -44.84375 -275.71875 L -91.15625 -258.546875 L -109.875 -309.046875 L 50.703125 -368.609375 L 69.421875 -318.109375 L 23.5 -301.078125 L 118.828125 -44.078125 L 50.484375 -18.71875 Z M -44.84375 -275.71875 "/></g></g></g><g fill="#a82424" fill-opacity="1"><g transform="translate(2317.007409, 457.669718)"><g><path d="M -30.15625 -327.484375 L 58.875 -342.375 C 94.289062 -348.300781 122.097656 -346.519531 142.296875 -337.03125 C 162.492188 -327.550781 175.265625 -306.835938 180.609375 -274.890625 C 184.222656 -253.328125 184.300781 -235.6875 180.84375 -221.96875 C 177.394531 -208.257812 168.6875 -196.539062 154.71875 -186.8125 L 225.234375 -37.6875 L 151.34375 -25.328125 L 91.5625 -164.328125 L 71.1875 -160.921875 L 95.4375 -15.96875 L 23.96875 -4.015625 Z M 84.265625 -205.390625 C 98.640625 -207.796875 108.050781 -213.269531 112.5 -221.8125 C 116.957031 -230.363281 117.914062 -242.234375 115.375 -257.421875 C 112.925781 -272.054688 108.425781 -282.585938 101.875 -289.015625 C 95.332031 -295.453125 85.535156 -297.578125 72.484375 -295.390625 L 49.328125 -291.515625 L 64.296875 -202.046875 Z M 84.265625 -205.390625 "/></g></g></g><g fill="#a82424" fill-opacity="1"><g transform="translate(2527.870534, 424.950825)"><g><path d="M 23.875 -328.03125 L 96.34375 -328.21875 L 97.171875 -0.25 L 24.703125 -0.0625 Z M 23.875 -328.03125 "/></g></g></g><g fill="#a82424" fill-opacity="1"><g transform="translate(2623.14353, 419.292726)"><g><path d="M 56.953125 -323.109375 L 118.234375 -314.015625 L 120.375 -88.546875 L 185.515625 -304.03125 L 250.390625 -294.40625 L 142.984375 21.21875 L 67.28125 9.984375 Z M 56.953125 -323.109375 "/></g></g></g><g fill="#a82424" fill-opacity="1"><g transform="translate(2802.834469, 444.56897)"><g><path d="M 127.328125 -303.203125 L 267.046875 -256.34375 L 251.328125 -209.5 L 180.3125 -233.328125 L 154.4375 -156.1875 L 208.578125 -138.03125 L 192.609375 -90.421875 L 138.46875 -108.578125 L 107.3125 -15.671875 L 179.109375 8.40625 L 163.53125 54.84375 L 23.03125 7.734375 Z M 127.328125 -303.203125 "/></g></g></g><g fill="#a82424" fill-opacity="1"><g transform="translate(2944.717178, 485.702132)"><g><path d="M 182.234375 -273.75 L 260.875 -229.421875 C 292.144531 -211.785156 312.660156 -192.929688 322.421875 -172.859375 C 332.179688 -152.796875 329.109375 -128.65625 313.203125 -100.4375 C 302.460938 -81.394531 291.441406 -67.625 280.140625 -59.125 C 268.835938 -50.625 254.703125 -46.976562 237.734375 -48.1875 L 198.921875 112.140625 L 133.671875 75.359375 L 174.453125 -70.359375 L 156.46875 -80.515625 L 84.296875 47.515625 L 21.171875 11.9375 Z M 194.59375 -106.875 C 207.28125 -99.71875 218.039062 -98.066406 226.875 -101.921875 C 235.707031 -105.773438 243.90625 -114.410156 251.46875 -127.828125 C 258.757812 -140.753906 261.875 -151.773438 260.8125 -160.890625 C 259.757812 -170.003906 253.472656 -177.804688 241.953125 -184.296875 L 221.5 -195.84375 L 176.953125 -116.828125 Z M 194.59375 -106.875 "/></g></g></g><g fill="#a82424" fill-opacity="1"><g transform="translate(1692.944263, 2031.178915)"><g><path d="M 134.328125 -136.046875 L 183.09375 -94.546875 C 195.882812 -83.660156 202.367188 -71.90625 202.546875 -59.28125 C 202.722656 -46.664062 197.007812 -33.546875 185.40625 -19.921875 C 172.1875 -4.390625 159.332031 3.265625 146.84375 3.046875 C 134.363281 2.828125 121.492188 -2.921875 108.234375 -14.203125 L 95.328125 -25.1875 L 42.84375 36.46875 L 10.75 9.15625 Z M 125.140625 -38.453125 C 130.753906 -33.671875 135.757812 -31.984375 140.15625 -33.390625 C 144.5625 -34.804688 149.765625 -39.039062 155.765625 -46.09375 C 161.253906 -52.539062 164.425781 -58.078125 165.28125 -62.703125 C 166.132812 -67.335938 163.628906 -72.148438 157.765625 -77.140625 L 147.203125 -86.140625 L 114.390625 -47.59375 Z M 125.140625 -38.453125 "/></g></g></g><g fill="#a82424" fill-opacity="1"><g transform="translate(1804.945064, 2125.747055)"><g><path d="M 55.859375 40.9375 C 44.003906 32.96875 35.914062 24.742188 31.59375 16.265625 C 27.28125 7.785156 26.238281 -1.132812 28.46875 -10.5 C 30.707031 -19.875 35.722656 -30.351562 43.515625 -41.9375 L 116.90625 -151.171875 L 151.46875 -127.9375 L 74.53125 -13.4375 C 70.238281 -7.050781 67.640625 -1.425781 66.734375 3.4375 C 65.828125 8.3125 67.847656 12.410156 72.796875 15.734375 C 77.753906 19.066406 82.28125 19.367188 86.375 16.640625 C 90.46875 13.910156 94.660156 9.351562 98.953125 2.96875 L 175.890625 -111.53125 L 210.671875 -88.15625 L 137.28125 21.078125 C 129.488281 32.660156 121.644531 41.234375 113.75 46.796875 C 105.851562 52.359375 97.191406 54.765625 87.765625 54.015625 C 78.347656 53.265625 67.710938 48.90625 55.859375 40.9375 Z M 55.859375 40.9375 "/></g></g></g><g fill="#a82424" fill-opacity="1"><g transform="translate(1930.014057, 2208.466651)"><g><path d="M 56 32.609375 C 39.875 24.140625 30.132812 13.570312 26.78125 0.90625 C 23.425781 -11.757812 26.351562 -27.550781 35.5625 -46.46875 L 69.96875 -34.5 C 64.488281 -23.726562 61.742188 -15.378906 61.734375 -9.453125 C 61.722656 -3.523438 64.144531 0.710938 69 3.265625 C 75.257812 6.554688 80.539062 4.101562 84.84375 -4.09375 C 88.269531 -10.625 89.726562 -17.035156 89.21875 -23.328125 C 88.71875 -29.617188 86.691406 -37.15625 83.140625 -45.9375 L 75.234375 -66.296875 C 71.234375 -76.203125 69.054688 -85.632812 68.703125 -94.59375 C 68.359375 -103.550781 70.671875 -112.753906 75.640625 -122.203125 C 83.078125 -136.367188 93.003906 -145.0625 105.421875 -148.28125 C 117.847656 -151.507812 131.421875 -149.253906 146.140625 -141.515625 C 162.117188 -133.128906 170.539062 -122.769531 171.40625 -110.4375 C 172.28125 -98.101562 169.425781 -85.15625 162.84375 -71.59375 L 128.671875 -84.484375 C 132.992188 -93.390625 135.492188 -100.097656 136.171875 -104.609375 C 136.859375 -109.128906 134.984375 -112.5625 130.546875 -114.90625 C 127.347656 -116.570312 124.171875 -116.503906 121.015625 -114.703125 C 117.859375 -112.910156 115.40625 -110.347656 113.65625 -107.015625 C 110.65625 -101.316406 109.414062 -95.847656 109.9375 -90.609375 C 110.46875 -85.367188 112.269531 -78.75 115.34375 -70.75 L 122.828125 -51.125 C 127.441406 -39.664062 129.960938 -28.769531 130.390625 -18.4375 C 130.828125 -8.113281 128.195312 2.46875 122.5 13.3125 C 118.34375 21.21875 112.722656 27.429688 105.640625 31.953125 C 98.566406 36.484375 90.710938 38.875 82.078125 39.125 C 73.441406 39.375 64.75 37.203125 56 32.609375 Z M 56 32.609375 "/></g></g></g><g fill="#a82424" fill-opacity="1"><g transform="translate(2047.612382, 2270.209308)"><g><path d="M 83.40625 -172.109375 L 122.625 -156.71875 L 94.4375 -84.828125 L 121.84375 -74.09375 L 150.03125 -145.984375 L 189.46875 -130.515625 L 119.875 47 L 80.4375 31.53125 L 110.84375 -46.046875 L 83.4375 -56.78125 L 53.03125 20.796875 L 13.8125 5.40625 Z M 83.40625 -172.109375 "/></g></g></g><g fill="#a82424" fill-opacity="1"><g transform="translate(2190.439778, 2323.888782)"><g/></g></g><g fill="#a82424" fill-opacity="1"><g transform="translate(2255.528139, 2343.99212)"><g><path d="M 53.921875 -67.96875 L 42.59375 -185.859375 L 81.453125 -177.359375 L 86.296875 -114.609375 L 115.03125 -170.015625 L 152.28125 -161.859375 L 93.46875 -59.328125 L 76.8125 16.796875 L 37.265625 8.15625 Z M 53.921875 -67.96875 "/></g></g></g><g fill="#a82424" fill-opacity="1"><g transform="translate(2379.982395, 2371.200089)"><g><path d="M 68.015625 10.34375 C 47.566406 8.082031 33.554688 1.207031 25.984375 -10.28125 C 18.421875 -21.769531 15.773438 -37.8125 18.046875 -58.40625 L 25.796875 -128.828125 C 28.066406 -149.421875 34.132812 -164.421875 44 -173.828125 C 53.875 -183.242188 69.035156 -186.820312 89.484375 -184.5625 C 110.078125 -182.300781 124.203125 -175.457031 131.859375 -164.03125 C 139.515625 -152.613281 142.21875 -136.6875 139.96875 -116.25 L 132.21875 -45.828125 C 129.945312 -25.234375 123.828125 -10.15625 113.859375 -0.59375 C 103.890625 8.957031 88.609375 12.601562 68.015625 10.34375 Z M 71.296875 -19.375 C 77.210938 -18.726562 81.328125 -20.289062 83.640625 -24.0625 C 85.953125 -27.832031 87.484375 -33.148438 88.234375 -40.015625 L 98.296875 -131.265625 C 99.066406 -138.285156 98.726562 -143.847656 97.28125 -147.953125 C 95.832031 -152.054688 92.148438 -154.429688 86.234375 -155.078125 C 80.617188 -155.703125 76.65625 -154.128906 74.34375 -150.359375 C 72.03125 -146.585938 70.5 -141.269531 69.75 -134.40625 L 59.6875 -43.15625 C 58.9375 -36.289062 59.203125 -30.773438 60.484375 -26.609375 C 61.765625 -22.441406 65.367188 -20.03125 71.296875 -19.375 Z M 71.296875 -19.375 "/></g></g></g><g fill="#a82424" fill-opacity="1"><g transform="translate(2529.426138, 2386.961245)"><g><path d="M 69.21875 2.46875 C 54.9375 2.539062 43.625 0.285156 35.28125 -4.296875 C 26.9375 -8.890625 21.054688 -15.6875 17.640625 -24.6875 C 14.222656 -33.695312 12.476562 -45.179688 12.40625 -59.140625 L 11.71875 -190.734375 L 53.375 -190.953125 L 54.09375 -53.015625 C 54.132812 -45.316406 55.148438 -39.195312 57.140625 -34.65625 C 59.128906 -30.125 63.101562 -27.875 69.0625 -27.90625 C 75.03125 -27.9375 78.941406 -30.226562 80.796875 -34.78125 C 82.648438 -39.34375 83.554688 -45.472656 83.515625 -53.171875 L 82.796875 -191.109375 L 124.703125 -191.328125 L 125.390625 -59.734375 C 125.460938 -45.773438 123.796875 -34.273438 120.390625 -25.234375 C 116.984375 -16.191406 111.171875 -9.332031 102.953125 -4.65625 C 94.742188 0.0078125 83.5 2.382812 69.21875 2.46875 Z M 69.21875 2.46875 "/></g></g></g><g fill="#a82424" fill-opacity="1"><g transform="translate(2680.316518, 2385.518244)"><g><path d="M -9.125 -190.984375 L 42.96875 -197.34375 C 63.695312 -199.882812 79.800781 -198.140625 91.28125 -192.109375 C 102.769531 -186.078125 109.65625 -173.71875 111.9375 -155.03125 C 113.488281 -142.40625 113.082031 -132.148438 110.71875 -124.265625 C 108.363281 -116.390625 103 -109.804688 94.625 -104.515625 L 131.78125 -16.109375 L 88.5625 -10.828125 L 57.390625 -93.109375 L 45.46875 -91.65625 L 55.84375 -6.828125 L 14.015625 -1.71875 Z M 54.21875 -117.125 C 62.625 -118.15625 68.226562 -121.097656 71.03125 -125.953125 C 73.84375 -130.804688 74.707031 -137.671875 73.625 -146.546875 C 72.570312 -155.109375 70.222656 -161.335938 66.578125 -165.234375 C 62.941406 -169.140625 57.3125 -170.628906 49.6875 -169.703125 L 36.140625 -168.046875 L 42.53125 -115.703125 Z M 54.21875 -117.125 "/></g></g></g><g fill="#a82424" fill-opacity="1"><g transform="translate(2829.066894, 2365.246289)"><g/></g></g><g fill="#a82424" fill-opacity="1"><g transform="translate(2895.327572, 2351.947841)"><g><path d="M -38 -187.390625 L 2.578125 -198.78125 L 46.46875 -42.640625 L 88.609375 -54.484375 L 96.3125 -27.0625 L 13.59375 -3.828125 Z M -38 -187.390625 "/></g></g></g><g fill="#a82424" fill-opacity="1"><g transform="translate(3002.931115, 2320.781552)"><g><path d="M -51.3125 -184.1875 L -11.671875 -198.515625 L 53.140625 -19.203125 L 13.5 -4.875 Z M -51.3125 -184.1875 "/></g></g></g><g fill="#a82424" fill-opacity="1"><g transform="translate(3080.190067, 2294.782948)"><g><path d="M -67.03125 -179.28125 L -26.25 -198.734375 L 40.40625 -107.703125 L 13.046875 -217.5 L 52.34375 -236.25 L 137.4375 -65.59375 L 110.46875 -52.71875 L 52.640625 -165.703125 L 87.3125 -41.671875 L 63.296875 -30.203125 L -12.984375 -135.421875 L 39.515625 -18.859375 L 12.109375 -5.78125 Z M -67.03125 -179.28125 "/></g></g></g><g fill="#a82424" fill-opacity="1"><g transform="translate(3237.914702, 2216.34975)"><g><path d="M -86.359375 -170.59375 L -50.296875 -192.40625 L 48.34375 -29.234375 L 12.28125 -7.421875 Z M -86.359375 -170.59375 "/></g></g></g><g fill="#a82424" fill-opacity="1"><g transform="translate(3305.406131, 2175.938475)"><g><path d="M -66.625 -148.109375 L -90.0625 -131.5 L -108.1875 -157.03125 L -26.96875 -214.625 L -8.84375 -189.09375 L -32.078125 -172.609375 L 60.09375 -42.609375 L 25.546875 -18.109375 Z M -66.625 -148.109375 "/></g></g></g><g fill="#a82424" fill-opacity="1"><g transform="translate(3399.004906, 2109.458788)"><g><path d="M 50.90625 -40.09375 C 37.101562 -28.207031 23.691406 -23.03125 10.671875 -24.5625 C -2.335938 -26.09375 -15.9375 -34.625 -30.125 -50.15625 L -6.359375 -77.765625 C 1.640625 -68.703125 8.390625 -63.070312 13.890625 -60.875 C 19.398438 -58.6875 24.238281 -59.382812 28.40625 -62.96875 C 33.757812 -67.570312 33.414062 -73.378906 27.375 -80.390625 C 22.5625 -85.984375 17.132812 -89.703125 11.09375 -91.546875 C 5.0625 -93.390625 -2.6875 -94.28125 -12.15625 -94.21875 L -34 -94.34375 C -44.6875 -94.257812 -54.257812 -95.703125 -62.71875 -98.671875 C -71.175781 -101.640625 -78.890625 -107.164062 -85.859375 -115.25 C -96.296875 -127.382812 -100.726562 -139.816406 -99.15625 -152.546875 C -97.59375 -165.273438 -90.507812 -177.066406 -77.90625 -187.921875 C -64.226562 -199.691406 -51.492188 -203.71875 -39.703125 -200 C -27.910156 -196.28125 -16.914062 -188.863281 -6.71875 -177.75 L -31.28125 -150.734375 C -37.976562 -158.015625 -43.300781 -162.800781 -47.25 -165.09375 C -51.195312 -167.394531 -55.070312 -166.910156 -58.875 -163.640625 C -61.601562 -161.285156 -62.710938 -158.304688 -62.203125 -154.703125 C -61.691406 -151.097656 -60.207031 -147.875 -57.75 -145.03125 C -53.550781 -140.15625 -48.921875 -136.992188 -43.859375 -135.546875 C -38.796875 -134.109375 -31.976562 -133.347656 -23.40625 -133.265625 L -2.40625 -133.03125 C 9.945312 -133.101562 21.003906 -131.441406 30.765625 -128.046875 C 40.535156 -124.660156 49.414062 -118.328125 57.40625 -109.046875 C 63.238281 -102.273438 66.957031 -94.765625 68.5625 -86.515625 C 70.164062 -78.265625 69.492188 -70.078125 66.546875 -61.953125 C 63.609375 -53.828125 58.394531 -46.539062 50.90625 -40.09375 Z M 50.90625 -40.09375 "/></g></g></g></svg>