<?xml version="1.0" standalone="no"?>
<!DOCTYPE svg PUBLIC "-//W3C//DTD SVG 20010904//EN"
 "http://www.w3.org/TR/2001/REC-SVG-20010904/DTD/svg10.dtd">
<svg version="1.0" xmlns="http://www.w3.org/2000/svg"
 width="320.000000pt" height="180.000000pt" viewBox="0 0 320.000000 180.000000"
 preserveAspectRatio="xMidYMid meet">

<g transform="translate(0.000000,180.000000) scale(0.100000,-0.100000)"
fill="#000000" stroke="none">
<path d="M0 1757 l0 -43 40 4 c34 4 40 8 40 27 0 40 19 46 156 43 l129 -3 3
-32 3 -33 1415 -2 1414 -3 0 43 0 42 -1600 0 -1600 0 0 -43z m65 3 c0 -18 -6
-26 -23 -28 -27 -4 -40 22 -22 44 19 22 45 13 45 -16z m1435 12 c0 -5 -7 -9
-15 -9 -8 0 -15 4 -15 9 0 4 7 8 15 8 8 0 15 -4 15 -8z m90 -4 c0 -5 7 -5 18
1 11 6 21 5 29 -4 10 -11 4 -12 -30 -8 -23 3 -55 5 -70 5 -15 -1 -26 2 -23 6
7 11 76 11 76 0z m95 2 c3 -5 -1 -10 -10 -10 -9 0 -13 5 -10 10 3 6 8 10 10
10 2 0 7 -4 10 -10z m45 -2 c0 -4 -4 -8 -9 -8 -6 0 -12 4 -15 8 -3 5 1 9 9 9
8 0 15 -4 15 -9z m-712 -9 c-2 -6 -8 -10 -13 -10 -5 0 -11 4 -13 10 -2 6 4 11
13 11 9 0 15 -5 13 -11z m415 4 c-13 -2 -35 -2 -50 0 -16 2 -5 4 22 4 28 0 40
-2 28 -4z"/>
<path d="M3067 1684 c-14 -15 -6 -34 14 -34 14 0 19 5 17 17 -3 18 -20 27 -31
17z"/>
<path d="M400 1590 c0 -11 7 -20 15 -20 8 0 15 9 15 20 0 11 -7 20 -15 20 -8
0 -15 -9 -15 -20z"/>
<path d="M221 1584 c0 -11 3 -14 6 -6 3 7 2 16 -1 19 -3 4 -6 -2 -5 -13z"/>
<path d="M270 1590 c0 -5 7 -10 15 -10 8 0 15 5 15 10 0 6 -7 10 -15 10 -8 0
-15 -4 -15 -10z"/>
<path d="M340 1590 c0 -5 5 -10 10 -10 6 0 10 5 10 10 0 6 -4 10 -10 10 -5 0
-10 -4 -10 -10z"/>
<path d="M0 825 l0 -725 64 0 c42 0 66 4 69 13 4 9 6 9 6 0 1 -14 90 -19 92
-5 0 4 2 17 3 30 2 16 -2 22 -13 20 -10 -2 -15 -12 -14 -26 3 -26 -23 -20 -32
8 -8 26 -50 51 -72 43 -16 -6 -17 -5 -3 12 9 11 10 16 3 11 -7 -4 -21 -2 -30
4 -17 11 -17 11 0 6 11 -3 15 -2 12 4 -3 6 -3 15 1 22 5 8 11 6 20 -6 8 -11
14 -13 19 -7 3 6 1 11 -4 11 -6 0 -11 7 -11 15 0 9 -10 15 -27 16 -18 1 -21 3
-10 6 9 2 14 9 10 15 -4 7 0 9 10 5 9 -3 22 0 29 7 7 7 19 11 26 8 6 -2 12 2
12 10 0 10 3 9 10 -2 8 -12 10 -12 15 2 6 15 8 15 25 -2 14 -14 28 -17 62 -13
l45 5 -1 -70 c-1 -44 -5 -67 -10 -62 -8 8 -35 -47 -36 -72 0 -4 88 -7 195 -8
144 0 195 3 195 12 0 9 3 9 12 0 30 -30 134 -8 301 63 13 5 17 2 17 -14 0 -12
6 -21 13 -21 7 0 19 -9 27 -20 13 -19 26 -20 186 -20 168 0 171 0 200 25 16
14 32 25 36 25 4 0 3 12 -2 26 -13 33 -13 34 6 27 12 -4 15 -1 12 13 -2 10
-10 19 -18 19 -8 0 -17 16 -22 40 -5 21 -19 51 -31 65 -12 14 -16 20 -9 14 14
-12 82 4 82 18 0 5 9 8 19 8 11 0 23 5 26 10 4 6 10 8 15 5 5 -3 34 6 65 20
31 14 62 25 71 25 8 0 27 11 41 24 15 14 30 23 35 20 4 -3 35 9 68 25 33 17
67 31 75 31 8 0 15 5 15 10 0 6 7 10 15 10 8 0 15 -4 15 -10 0 -5 8 -10 18
-11 10 0 4 -5 -14 -12 -19 -7 -29 -17 -26 -26 2 -7 -2 -17 -9 -22 -11 -7 -10
-9 5 -9 17 0 17 -2 -4 -20 -18 -16 -20 -20 -7 -20 13 0 14 -5 8 -22 -4 -12
-14 -24 -22 -26 -12 -3 -12 -2 0 6 8 6 9 12 3 16 -14 9 -23 -22 -9 -31 7 -5
19 -17 27 -27 14 -18 13 -19 -2 -13 -12 4 -15 2 -11 -9 3 -7 13 -14 22 -14 14
-1 14 -2 1 -13 -19 -14 -19 -24 -1 -57 l14 -25 -24 20 c-16 14 -20 15 -11 3 8
-10 11 -26 7 -38 -4 -11 -3 -19 2 -18 8 3 23 -8 65 -46 13 -11 19 -13 16 -5
-6 17 9 49 22 49 6 0 9 -5 8 -11 -2 -6 2 -13 9 -16 8 -3 11 3 8 16 -2 14 1 18
10 15 7 -3 12 -14 10 -25 -2 -10 0 -19 6 -19 5 0 9 4 9 9 0 4 12 6 26 3 19 -3
25 -1 20 7 -4 6 -16 11 -28 11 -17 0 -18 2 -8 15 14 16 45 21 35 5 -3 -6 1 -7
9 -4 9 3 16 10 16 15 0 5 4 9 8 9 5 0 7 -13 4 -30 -2 -16 -8 -27 -13 -24 -5 3
-9 0 -9 -6 0 -7 7 -9 15 -6 10 4 20 -3 27 -19 l11 -25 499 0 498 0 -2 723 -3
722 -1582 3 -1583 2 0 -725z m690 549 c0 -14 -4 -23 -10 -19 -5 3 -10 15 -10
26 0 10 5 19 10 19 6 0 10 -12 10 -26z m77 -6 c-3 -7 -5 -2 -5 12 0 14 2 19 5
13 2 -7 2 -19 0 -25z m150 0 c-3 -7 -5 -2 -5 12 0 14 2 19 5 13 2 -7 2 -19 0
-25z m1308 23 c-3 -5 -1 -12 5 -16 5 -3 10 -2 10 4 0 5 20 8 45 7 26 -1 45 2
46 8 0 6 3 5 6 -2 2 -6 9 -9 15 -6 6 4 14 0 19 -7 6 -9 9 -10 9 -2 0 6 13 11
30 11 21 -1 30 -6 30 -18 0 -14 -7 -15 -52 -10 -67 9 -61 10 -75 -9 -9 -12
-12 -13 -13 -2 0 11 -3 11 -15 1 -12 -10 -15 -9 -15 6 0 11 -4 15 -8 9 -14
-19 -45 -11 -48 13 -2 12 1 22 7 22 5 0 8 -4 4 -9z m262 -23 c-3 -7 -5 -2 -5
12 0 14 2 19 5 13 2 -7 2 -19 0 -25z m-1737 0 c0 -17 -3 -18 -15 -8 -11 9 -15
9 -15 1 0 -7 -4 -9 -10 -6 -19 12 -10 33 15 33 18 0 25 -6 25 -20z m120 2 c0
-11 -12 -15 -45 -15 -35 0 -45 4 -45 16 0 13 9 17 45 15 33 -1 45 -5 45 -16z
m30 5 c0 -8 -4 -15 -10 -15 -5 0 -10 7 -10 15 0 8 5 15 10 15 6 0 10 -7 10
-15z m1570 0 c0 -8 -4 -15 -10 -15 -5 0 -10 7 -10 15 0 8 5 15 10 15 6 0 10
-7 10 -15z m50 -1 c0 -8 -4 -12 -10 -9 -5 3 -10 10 -10 16 0 5 5 9 10 9 6 0
10 -7 10 -16z m-1843 -471 c-3 -10 -5 -4 -5 12 0 17 2 24 5 18 2 -7 2 -21 0
-30z m1603 26 c0 -7 10 -9 25 -7 18 4 25 1 26 -11 0 -10 2 -12 6 -3 5 14 53
17 53 3 0 -16 -18 -22 -24 -9 -5 10 -7 10 -12 1 -3 -7 -12 -13 -20 -13 -8 0
-14 6 -14 13 0 8 -4 7 -11 -3 -9 -12 -12 -13 -16 -1 -5 11 -7 11 -14 0 -11
-19 -34 4 -26 25 7 18 27 22 27 5z m190 -20 c0 -10 -4 -19 -10 -19 -5 0 -10
12 -10 26 0 14 4 23 10 19 6 -3 10 -15 10 -26z m-1690 -7 c0 -8 -3 -12 -7 -9
-3 4 -12 2 -20 -4 -10 -9 -13 -7 -13 8 0 11 3 22 6 26 10 10 34 -4 34 -21z
m80 13 c1 11 4 15 6 9 3 -6 18 -10 34 -8 20 2 30 -1 30 -9 0 -9 -15 -14 -45
-14 -40 -1 -45 2 -44 21 0 20 1 20 9 1 l9 -20 1 20z m1577 -5 c0 -8 -11 -16
-23 -16 -16 -1 -20 3 -17 15 5 21 42 22 40 1z m-1727 -5 c0 -8 -4 -15 -10 -15
-5 0 -10 7 -10 15 0 8 5 15 10 15 6 0 10 -7 10 -15z m17 -7 c-3 -8 -6 -5 -6 6
-1 11 2 17 5 13 3 -3 4 -12 1 -19z m70 0 c-3 -8 -6 -5 -6 6 -1 11 2 17 5 13 3
-3 4 -12 1 -19z m33 7 c0 -8 -4 -15 -10 -15 -5 0 -10 7 -10 15 0 8 5 15 10 15
6 0 10 -7 10 -15z m-744 -321 c-6 -15 15 -15 25 0 7 9 22 10 112 6 l48 -2 -6
-51 c-3 -29 -10 -56 -16 -61 -5 -6 -9 -26 -9 -45 0 -22 -3 -31 -8 -23 -7 9
-21 8 -68 -9 -105 -38 -144 -48 -144 -40 0 5 27 19 60 31 33 12 60 28 60 35 0
25 29 39 55 27 16 -7 26 -8 30 -1 4 5 3 9 -2 8 -19 -3 -33 2 -33 12 0 5 6 7
13 3 6 -4 3 2 -7 14 -11 12 -14 22 -8 22 6 0 13 -4 17 -10 10 -16 33 0 44 32
6 17 9 34 6 36 -4 5 -85 -17 -134 -36 -8 -3 -12 -1 -8 5 3 5 0 10 -7 10 -8 0
-12 -6 -9 -14 3 -7 -2 -13 -10 -13 -8 0 -18 6 -20 13 -3 7 -6 5 -6 -6 -1 -15
-4 -15 -21 -5 -13 8 -20 24 -20 43 0 29 3 31 36 32 26 1 34 -2 30 -13z m579
-4 c-36 -17 -106 -28 -93 -15 7 7 98 32 118 33 8 0 -3 -8 -25 -18z m357 2 c9
-9 9 -12 0 -12 -7 0 -12 -4 -12 -10 0 -5 7 -10 15 -10 8 0 15 -4 15 -10 0 -5
-9 -10 -21 -10 -14 0 -19 -5 -16 -14 3 -8 -1 -20 -9 -27 -12 -10 -13 -9 -8 6
5 13 4 16 -4 11 -8 -5 -14 7 -18 34 l-7 40 -13 -26 c-8 -14 -14 -47 -14 -73 0
-26 -7 -56 -15 -67 -8 -10 -15 -15 -15 -11 0 4 -6 2 -14 -5 -7 -7 -11 -19 -8
-26 4 -11 6 -11 14 0 6 9 7 6 3 -9 -3 -13 -2 -23 3 -23 11 0 35 -50 27 -58 -3
-3 -5 0 -5 7 0 7 -9 3 -21 -8 -12 -11 -19 -26 -16 -34 4 -11 -2 -14 -29 -10
-28 4 -33 2 -28 -11 4 -10 1 -16 -8 -16 -7 0 -19 -9 -26 -21 -8 -12 -9 -18 -3
-15 5 4 13 1 17 -5 4 -8 3 -9 -4 -5 -7 4 -12 1 -12 -6 -1 -7 -6 -4 -13 7 -17
28 -47 31 -54 6 -3 -12 -14 -21 -25 -21 -10 0 -17 -4 -14 -8 3 -5 -8 -9 -25
-10 -24 -1 -32 5 -41 26 -5 15 -21 48 -34 74 -31 62 -30 71 6 85 31 12 42 43
15 43 -9 0 -29 -7 -45 -15 -34 -18 -35 -16 -23 70 5 42 10 49 42 63 20 8 42
15 49 15 6 0 12 5 12 10 0 5 13 7 29 5 17 -2 28 -1 25 3 -2 4 10 12 28 18 41
15 55 14 40 -1 -7 -7 -12 -17 -12 -23 0 -5 5 -3 10 5 6 10 10 11 10 3 0 -7 8
-13 18 -12 10 0 12 3 5 6 -7 2 -13 14 -13 25 0 18 2 19 17 7 9 -8 14 -9 10 -3
-3 6 0 11 8 11 17 0 19 -8 5 -25 -7 -8 -7 -9 1 -3 6 5 19 7 28 4 14 -4 14 -3
1 6 -13 9 -13 11 0 11 9 0 21 -15 28 -32 12 -32 13 -32 27 -14 23 31 18 51
-17 68 l-33 16 25 10 c32 14 127 9 142 -6z m853 8 c3 -5 1 -11 -4 -11 -20 -3
-26 -5 -48 -17 -13 -7 -23 -10 -23 -6 0 4 -8 0 -17 -8 -17 -14 -50 -29 -80
-34 -7 -1 -13 5 -14 14 0 13 -3 11 -9 -4 -10 -25 -30 -41 -30 -25 0 6 -4 11
-10 11 -5 0 -6 -8 -3 -17 5 -12 2 -15 -10 -10 -10 4 -17 2 -17 -5 0 -6 -3 -8
-7 -5 -3 4 -12 -1 -20 -11 -8 -9 -12 -11 -8 -4 3 7 -10 1 -30 -12 -20 -14 -53
-30 -73 -37 -20 -6 -42 -16 -48 -20 -31 -25 -123 5 -177 56 -20 19 -26 32 -21
50 4 18 0 27 -20 40 -25 17 -46 17 -91 0 -18 -6 -17 -5 3 12 l22 18 -42 -1
c-41 -1 -41 -1 -5 3 21 2 41 11 44 19 4 12 61 14 368 14 232 0 366 -4 370 -10z
m1190 -1 c4 -5 9 -7 13 -5 4 2 8 -6 8 -18 2 -29 -93 -78 -107 -55 -5 8 -9 9
-9 3 0 -12 -47 -7 -65 6 -5 5 -19 10 -30 12 -11 1 -23 8 -27 13 -5 6 -12 4
-19 -5 -7 -10 -12 -11 -15 -4 -3 7 -15 10 -27 7 -22 -5 -22 -5 -2 10 20 16 20
16 -2 17 -12 0 -25 -4 -28 -10 -3 -5 -12 -10 -18 -9 -9 0 -9 2 1 6 6 2 12 9
12 15 0 6 -6 8 -14 5 -8 -3 -22 0 -32 8 -15 11 12 13 169 13 108 1 189 -3 192
-9z m-1048 -21 c-3 -8 -6 -5 -6 6 -1 11 2 17 5 13 3 -3 4 -12 1 -19z m-28 -12
c10 -12 8 -13 -8 -9 -12 3 -18 9 -15 14 7 12 10 11 23 -5z m-779 -48 c0 -6 -6
-5 -15 2 -8 7 -15 14 -15 16 0 2 7 1 15 -2 8 -4 15 -11 15 -16z m800 13 c0 -6
-4 -12 -8 -15 -5 -3 -9 1 -9 9 0 8 4 15 9 15 4 0 8 -4 8 -9z m-1020 -55 c0
-11 -19 -15 -25 -6 -3 5 1 10 9 10 9 0 16 -2 16 -4z m-888 -48 c-6 -6 -15 -8
-19 -4 -4 4 -1 11 7 16 19 12 27 3 12 -12z m1280 -118 c-21 -17 -67 -17 -78 1
-7 12 13 11 36 -1 15 -8 21 -6 30 10 6 11 16 17 22 14 7 -5 4 -13 -10 -24z
m-962 10 c0 -5 -13 -10 -30 -10 -16 0 -30 5 -30 10 0 6 14 10 30 10 17 0 30
-4 30 -10z m497 -62 c-3 -8 -6 -5 -6 6 -1 11 2 17 5 13 3 -3 4 -12 1 -19z
m-560 6 c-3 -3 -12 -4 -19 -1 -8 3 -5 6 6 6 11 1 17 -2 13 -5z m838 -4 c3 -5
2 -10 -4 -10 -5 0 -13 5 -16 10 -3 6 -2 10 4 10 5 0 13 -4 16 -10z m978 -20
c3 -11 1 -20 -4 -20 -5 0 -9 9 -9 20 0 11 2 20 4 20 2 0 6 -9 9 -20z m-113
-20 c0 -11 -4 -20 -9 -20 -7 0 -8 17 -2 38 4 10 11 -2 11 -18z m-40 0 c0 -5
-5 -10 -11 -10 -5 0 -7 5 -4 10 3 6 8 10 11 10 2 0 4 -4 4 -10z m190 -4 c0 -3
-4 -8 -10 -11 -5 -3 -10 -1 -10 4 0 6 5 11 10 11 6 0 10 -2 10 -4z m-239 -39
c-5 -5 -18 -6 -28 -2 -17 8 -17 8 0 12 10 3 14 9 10 16 -4 7 1 6 11 -2 11 -9
13 -18 7 -24z m193 1 c-5 -7 0 -9 14 -6 14 4 22 0 25 -13 3 -11 1 -17 -4 -13
-5 3 -9 0 -9 -5 0 -6 -5 -11 -11 -11 -8 0 -7 6 2 17 12 15 12 16 -3 10 -19 -7
-33 7 -23 23 3 6 8 10 11 10 3 0 2 -5 -2 -12z m-1761 -27 c-4 -15 -8 -19 -13
-10 -5 6 -3 18 3 24 16 17 17 14 10 -14z m2560 14 c-3 -9 -8 -14 -10 -11 -3 3
-2 9 2 15 9 16 15 13 8 -4z"/>
<path d="M56 573 c-6 -14 -5 -15 5 -6 7 7 10 15 7 18 -3 3 -9 -2 -12 -12z"/>
<path d="M150 572 c0 -4 9 -8 20 -9 11 -1 18 2 15 8 -7 11 -35 12 -35 1z"/>
<path d="M165 440 c-3 -5 1 -10 10 -10 9 0 13 5 10 10 -3 6 -8 10 -10 10 -2 0
-7 -4 -10 -10z"/>
<path d="M850 501 c-8 -6 -17 -8 -21 -6 -3 3 -6 -5 -5 -18 1 -13 9 -23 21 -25
l20 -4 -20 16 c-20 15 -20 15 1 16 12 0 21 7 21 15 0 8 -1 15 -1 15 -1 0 -8
-4 -16 -9z"/>
<path d="M860 436 c0 -2 7 -7 16 -10 8 -3 12 -2 9 4 -6 10 -25 14 -25 6z"/>
<path d="M607 233 c-10 -9 -9 -23 1 -23 5 0 9 7 9 15 0 17 -1 18 -10 8z"/>
<path d="M665 180 c3 -5 1 -10 -4 -10 -6 0 -11 -4 -11 -10 0 -15 24 -12 46 6
10 8 14 13 7 10 -6 -4 -14 -2 -18 4 -3 5 -11 10 -16 10 -6 0 -7 -4 -4 -10z"/>
<path d="M1305 530 c3 -5 10 -10 16 -10 5 0 9 5 9 10 0 6 -7 10 -16 10 -8 0
-12 -4 -9 -10z"/>
<path d="M1366 514 c-4 -10 -1 -14 6 -12 15 5 23 28 10 28 -5 0 -13 -7 -16
-16z"/>
<path d="M1355 480 c3 -5 8 -10 11 -10 2 0 4 5 4 10 0 6 -5 10 -11 10 -5 0 -7
-4 -4 -10z"/>
<path d="M206 218 c3 -5 10 -6 15 -3 13 9 11 12 -6 12 -8 0 -12 -4 -9 -9z"/>
<path d="M140 210 c-12 -8 -10 -10 8 -10 13 0 20 4 17 10 -7 12 -6 12 -25 0z"/>
<path d="M1475 199 c-4 -6 -5 -11 -4 -12 2 -1 27 -13 54 -26 28 -14 62 -33 77
-43 14 -10 39 -18 55 -18 l28 1 -31 17 c-19 10 -29 23 -27 32 4 13 3 13 -6 0
-9 -12 -13 -12 -19 -2 -5 7 -19 14 -30 15 -12 1 -22 5 -22 9 0 7 -52 38 -64
38 -3 0 -8 -5 -11 -11z"/>
<path d="M228 183 c7 -3 16 -2 19 1 4 3 -2 6 -13 5 -11 0 -14 -3 -6 -6z"/>
<path d="M190 170 c-8 -5 -12 -12 -9 -15 4 -3 12 1 19 10 14 17 11 19 -10 5z"/>
<path d="M255 171 c-3 -5 -2 -12 3 -15 5 -3 9 1 9 9 0 17 -3 19 -12 6z"/>
<path d="M790 56 c0 -8 4 -17 8 -20 4 -2 8 4 8 15 0 10 -4 19 -8 19 -4 0 -8
-6 -8 -14z"/>
<path d="M882 48 c2 -15 10 -23 23 -23 13 0 21 8 23 23 3 18 -1 22 -23 22 -22
0 -26 -4 -23 -22z"/>
<path d="M1079 53 c-13 -16 -12 -17 4 -4 9 7 17 15 17 17 0 8 -8 3 -21 -13z"/>
<path d="M3134 49 c0 -10 4 -19 8 -19 4 0 8 6 8 14 0 8 -4 17 -8 20 -4 2 -8
-4 -8 -15z"/>
<path d="M481 44 c0 -11 3 -14 6 -6 3 7 2 16 -1 19 -3 4 -6 -2 -5 -13z"/>
<path d="M600 45 c0 -9 9 -15 21 -15 18 0 19 2 5 15 -8 8 -17 15 -20 15 -3 0
-6 -7 -6 -15z"/>
<path d="M980 50 c0 -5 7 -10 15 -10 8 0 15 5 15 10 0 6 -7 10 -15 10 -8 0
-15 -4 -15 -10z"/>
<path d="M2830 50 c0 -5 7 -10 15 -10 8 0 15 5 15 10 0 6 -7 10 -15 10 -8 0
-15 -4 -15 -10z"/>
<path d="M3050 50 c0 -5 5 -10 10 -10 6 0 10 5 10 10 0 6 -4 10 -10 10 -5 0
-10 -4 -10 -10z"/>
<path d="M718 33 c7 -3 16 -2 19 1 4 3 -2 6 -13 5 -11 0 -14 -3 -6 -6z"/>
</g>
</svg>
